<svg width="64" height="64" viewBox="0 0 1024 1024" xmlns="http://www.w3.org/2000/svg" t="1749661392643" class="icon" version="1.1" p-id="1603">
  <g>
    <title>Layer 1</title>
    <path stroke="null" d="m512,1021.58646c-280.97058,0 -509.58639,-229.02368 -509.58639,-510.49554s228.6158,-510.49554 509.58639,-510.49554s509.58639,229.02368 509.58639,510.49554s-228.6158,510.49554 -509.58639,510.49554zm0,-968.54291c-252.17546,0 -457.23162,205.422 -457.23162,458.04737s205.05616,458.04737 457.23162,458.04737s457.23162,-205.422 457.23162,-458.04737s-205.05616,-458.04737 -457.23162,-458.04737z" fill="#3b82f6" p-id="1604" id="svg_1"/>
    <g stroke="null">
      <path stroke="null" p-id="4638" fill="#92BCEE" d="m670.45703,239.32723c94.82486,55.95753 153.68041,159.18883 153.68041,269.41876l60.82859,0c0.05081,-132.46052 -69.82163,-255.00809 -183.67225,-322.00785l-30.83676,52.58909zm-468.77723,269.41876c0.05081,-113.70472 61.60953,-218.4177 160.80107,-273.45867l-29.4273,-53.403c-118.53531,65.77059 -192.09416,190.97629 -192.20142,326.86166l60.82765,0zm468.30773,269.86548c-47.67306,27.9538 -101.89472,42.67338 -157.10713,42.61973c-59.67977,0.10266 -118.11568,-17.12059 -168.28962,-49.56934l-32.96223,51.30998c117.80518,75.94157 268.15296,79.16111 389.08096,8.27867l-30.72197,-52.63904z"/>
      <path stroke="null" p-id="4639" fill="#0073FF" d="m802.41039,582.47985c-23.49969,0 -46.27019,8.07519 -64.36352,22.94461l-62.49115,-35.82366c6.91743,-18.80573 10.45236,-38.68711 10.39496,-58.66745c0,-84.37285 -61.60953,-154.69111 -141.99266,-169.00096l0,-69.1455c41.65888,-13.18427 70.30619,-52.02399 70.30619,-95.92284c0,-55.54873 -45.38858,-100.57317 -101.3236,-100.57317c-55.94161,0 -101.3236,45.02167 -101.3236,100.57317c0,43.89885 28.69717,82.73857 71.18404,95.92284l0,69.09186c-81.21676,14.31078 -142.81971,84.62812 -142.81971,169.00096c0,20.03398 3.53493,39.86264 10.39496,58.66838l-62.49115,35.82366c-18.14414,-14.81947 -40.9137,-22.89466 -64.36352,-22.89466c-55.99242,0 -101.3236,45.02167 -101.3236,100.57317s45.38858,100.57317 101.3236,100.57317c55.93596,0 101.3236,-45.02167 101.3236,-100.57317c0,-9.14806 -1.25044,-18.19438 -3.7438,-26.98359l59.83878,-34.29205c32.80322,38.58353 81.10479,60.81412 131.94395,60.81412c50.84574,0 99.14073,-22.23059 131.94395,-60.81412l59.83878,34.29205a103.88752,102.12051 0 0 0 -3.69394,26.93087c0,55.54873 45.38858,100.52046 101.3236,100.52046c55.94161,0 101.3236,-45.02167 101.3236,-100.52046s-45.2672,-100.51768 -101.20975,-100.51768zm-538.28649,100.52046c0,22.18065 -18.14414,40.16786 -40.50159,40.16786s-40.44419,-17.98813 -40.44419,-40.16786c0,-22.18065 18.14414,-40.16786 40.50159,-40.16786c22.30005,0 40.44419,17.98813 40.44419,40.16786zm208.42238,-506.08356c0,-22.18065 18.14414,-40.16786 40.50159,-40.16786s40.50159,17.98813 40.50159,40.16786s-18.14414,40.16786 -40.50159,40.16786c-22.41484,0 -40.50159,-17.98721 -40.50159,-40.16786zm40.44513,445.26944c-61.92003,0 -112.1382,-49.82553 -112.1382,-111.30372s50.21723,-111.30372 112.1382,-111.30372s112.1382,49.82553 112.1382,111.30372c-0.05175,61.47911 -50.21817,111.25377 -112.1382,111.30372zm329.91492,60.81412c0,22.18065 -18.14414,40.16786 -40.50159,40.16786s-40.44419,-17.98813 -40.44419,-40.16786c0,-22.18065 18.14414,-40.16786 40.50159,-40.16786s40.44419,17.98813 40.44419,40.16786z"/>
    </g>
  </g>
</svg>
