<svg width="1024" height="1024" xmlns="http://www.w3.org/2000/svg" p-id="1603" version="1.1" class="icon" t="1749661392643">

 <g>
  <title>Layer 1</title>
  <path id="svg_1" p-id="1604" fill="#3b82f6" d="m512,910.67733c-219.81867,0 -398.67733,-178.85866 -398.67733,-398.67733s178.85866,-398.67733 398.67733,-398.67733s398.67733,178.85866 398.67733,398.67733s-178.85866,398.67733 -398.67733,398.67733zm0,-756.39466c-197.29067,0 -357.71733,160.42666 -357.71733,357.71733s160.42666,357.71733 357.71733,357.71733s357.71733,-160.42666 357.71733,-357.71733s-160.42666,-357.71733 -357.71733,-357.71733z"/>
  <g stroke="null">
   <path stroke="null" p-id="4638" fill="#92BCEE" d="m632.21574,316.19399c70.87023,42.84711 114.85771,121.8921 114.85771,206.29599l45.46209,0c0.03797,-101.42602 -52.18331,-195.26163 -137.27302,-246.56386l-23.04678,40.26787zm-350.35487,206.29599c0.03797,-87.06457 46.04575,-167.24409 120.17955,-209.38938l-21.99339,-40.89108c-88.59096,50.36104 -143.56739,146.23199 -143.64756,250.28046l45.46139,0zm350.00397,206.63805c-35.6299,21.40443 -76.1541,32.67533 -117.41878,32.63425c-44.60348,0.07861 -88.27733,-13.10937 -125.77635,-37.95562l-24.63532,39.28844c88.04527,58.14904 200.41224,60.61426 290.79144,6.33904l-22.96099,-40.30611z"/>
   <path stroke="null" p-id="4639" fill="#0073FF" d="m730.83508,578.94856c-17.56321,0 -34.58143,6.18324 -48.10403,17.56886l-46.70465,-27.43045c5.16995,-14.39969 7.81189,-29.62302 7.76899,-44.92212c0,-64.60493 -46.04575,-118.44816 -106.12252,-129.40532l0,-52.94524c31.13503,-10.0953 52.54546,-39.83516 52.54546,-73.44885c0,-42.53409 -33.92253,-77.00964 -75.72726,-77.00964c-41.80966,0 -75.72726,34.47343 -75.72726,77.00964c0,33.61369 21.4477,63.35355 53.20155,73.44885l0,52.90416c-60.69981,10.95787 -106.74063,64.80039 -106.74063,129.40532c0,15.34017 2.64193,30.52313 7.76899,44.92282l-46.70465,27.43045c-13.56057,-11.34738 -30.57809,-17.53062 -48.10403,-17.53062c-41.84763,0 -75.72726,34.47343 -75.72726,77.00964s33.92253,77.00964 75.72726,77.00964c41.80544,0 75.72726,-34.47343 75.72726,-77.00964c0,-7.00474 -0.93456,-13.93158 -2.79805,-20.66154l44.72232,-26.25768c24.51648,29.5437 60.61612,46.56583 98.61231,46.56583c38.00111,0 74.09583,-17.02213 98.61231,-46.56583l44.72232,26.25768a77.64349,78.19445 0 0 0 -2.76078,20.62117c0,42.53409 33.92253,76.96928 75.72726,76.96928c41.80966,0 75.72726,-34.47343 75.72726,-76.96928s-33.83181,-76.96715 -75.64217,-76.96715zm-402.30472,76.96928c0,16.98389 -13.56057,30.75683 -30.27009,30.75683s-30.22719,-13.77365 -30.22719,-30.75683c0,-16.98389 13.56057,-30.75683 30.27009,-30.75683c16.66662,0 30.22719,13.77365 30.22719,30.75683zm155.77078,-387.51202c0,-16.98389 13.56057,-30.75683 30.27009,-30.75683s30.27009,13.77365 30.27009,30.75683s-13.56057,30.75683 -30.27009,30.75683c-16.75241,0 -30.27009,-13.77294 -30.27009,-30.75683zm30.2279,340.94619c-46.27781,0 -83.80988,-38.15179 -83.80988,-85.2261s37.53137,-85.2261 83.80988,-85.2261s83.80988,38.15179 83.80988,85.2261c-0.03868,47.07502 -37.53207,85.18786 -83.80988,85.2261zm246.57191,46.56583c0,16.98389 -13.56057,30.75683 -30.27009,30.75683s-30.22719,-13.77365 -30.22719,-30.75683c0,-16.98389 13.56057,-30.75683 30.27009,-30.75683s30.22719,13.77365 30.22719,30.75683z"/>
  </g>
 </g>
</svg>